<svg width="20" height="20" viewBox="0 0 20 20" fill="none" xmlns="http://www.w3.org/2000/svg">
<g clip-path="url(#clip0)">
<path fill-rule="evenodd" clip-rule="evenodd" d="M9.98588 10.45C13.3559 10.45 16.3829 8.574 18.0219 5.562C18.2059 5.225 18.5519 5 18.9359 5C19.6259 5 20.1009 5.69 19.7829 6.303C19.2809 7.273 18.6529 8.159 17.9219 8.939L19.6949 10.659C20.0789 11.033 20.1029 11.661 19.7499 12.063C19.668 12.158 19.5674 12.2351 19.4545 12.2895C19.3415 12.344 19.2185 12.3746 19.0932 12.3795C18.9679 12.3844 18.8429 12.3634 18.726 12.3179C18.6092 12.2724 18.5029 12.2033 18.4139 12.115L16.4789 10.237C15.5489 10.94 14.5089 11.497 13.3949 11.873L14.0609 13.684C14.147 13.9231 14.1378 14.1862 14.035 14.4186C13.9322 14.651 13.7437 14.8349 13.5089 14.932C13.3948 14.9792 13.2723 15.0028 13.1489 15.0013C13.0254 14.9998 12.9036 14.9733 12.7906 14.9234C12.6777 14.8735 12.5761 14.8012 12.4919 14.7109C12.4077 14.6206 12.3428 14.5141 12.3009 14.398L11.5369 12.318C10.4093 12.4835 9.26248 12.4676 8.13988 12.271L7.35688 14.398C7.31512 14.5141 7.25024 14.6205 7.16615 14.7108C7.08206 14.8011 6.98053 14.8734 6.86769 14.9234C6.75485 14.9733 6.63305 14.9998 6.50967 15.0013C6.38629 15.0028 6.26389 14.9792 6.14988 14.932C5.91484 14.8351 5.7262 14.6513 5.62321 14.4189C5.52021 14.1864 5.51078 13.9232 5.59688 13.684L6.29988 11.774C5.30009 11.4042 4.35979 10.8901 3.50888 10.248L1.58588 12.115C1.49693 12.2035 1.3907 12.2727 1.27382 12.3182C1.15694 12.3638 1.03192 12.3848 0.906559 12.38C0.781199 12.3751 0.658189 12.3444 0.545206 12.2899C0.432223 12.2353 0.331691 12.1581 0.249883 12.063C0.0794592 11.8658 -0.00966553 11.6111 0.000545551 11.3506C0.0107566 11.0902 0.119541 10.8433 0.304883 10.66L2.06388 8.953C1.31941 8.16057 0.688407 7.26874 0.188883 6.303C-0.128117 5.69 0.345883 5 1.03688 5C1.42088 5 1.76688 5.225 1.94988 5.562C3.58988 8.574 6.61588 10.449 9.98588 10.449V10.45Z" fill="#CED3DB"/>
</g>
<defs>
<clipPath id="clip0">
<rect width="20" height="20" fill="white"/>
</clipPath>
</defs>
</svg>
