<svg width="23" height="23" viewBox="0 0 23 23" fill="none" xmlns="http://www.w3.org/2000/svg">
<path d="M11.2553 18.68H12.6228C12.7393 18.6774 12.854 18.6501 12.9593 18.6C13.0646 18.5499 13.1581 18.4781 13.2337 18.3893C13.3513 18.2048 13.4136 17.9906 13.4134 17.7719C13.4134 17.7719 13.3774 15.9197 14.2399 15.6289C15.0665 15.3748 16.1471 17.4448 17.3345 18.2441C17.7916 18.5487 18.3331 18.7013 18.882 18.68H21.9406C22.1562 18.68 23.4881 18.4985 22.8031 17.2634C22.7313 17.1555 22.3719 16.3189 20.5003 14.5756C18.5571 12.7597 18.845 13.05 21.1471 9.92671C22.5505 8.0382 23.0903 6.87598 22.9465 6.3689C22.8387 5.96928 21.7246 6.04187 21.7246 6.04187H18.2725C18.1248 6.02243 17.9746 6.04745 17.8412 6.11375C17.7151 6.20748 17.616 6.3328 17.5537 6.47707C17.202 7.42078 16.7692 8.33221 16.26 9.20114C14.7125 11.8526 14.1009 11.9978 13.8489 11.8163C13.2739 11.4167 13.4177 10.2908 13.4177 9.45557C13.4177 6.8767 13.813 5.82337 12.663 5.533C12.1346 5.39745 11.5877 5.3489 11.0437 5.38925C9.82178 5.38925 8.77672 5.38925 8.1647 5.67998C7.76939 5.86147 7.48189 6.29739 7.66158 6.33368C8.04834 6.37293 8.40683 6.5541 8.66783 6.8422C9.0272 7.31442 9.0272 8.44034 9.0272 8.44034C9.0272 8.44034 9.24283 11.4548 8.56002 11.8185C8.09283 12.0725 7.44595 11.5644 6.0771 9.167C5.60688 8.33862 5.19848 7.47665 4.85522 6.58812C4.78839 6.43627 4.69045 6.30013 4.56772 6.1885C4.41412 6.06318 4.2262 5.98727 4.02866 5.97072H0.747923C0.747923 5.97072 0.244798 5.93478 0.0651107 6.22479C0.0253811 6.31651 0.00488281 6.4154 0.00488281 6.51535C0.00488281 6.6153 0.0253811 6.71419 0.0651107 6.8059C0.0651107 6.8059 2.65513 12.9049 5.57038 15.9563C8.23335 18.8982 11.256 18.6804 11.256 18.6804L11.2553 18.68Z" fill="white"/>
</svg>
