<svg width="8" height="8" viewBox="0 0 8 8" fill="none" xmlns="http://www.w3.org/2000/svg">
<path d="M3.5793 -3.65777C3.82435 -3.85711 4.17565 -3.85711 4.4207 -3.65777L5.52833 -2.75673C5.6757 -2.63684 5.86722 -2.58553 6.05479 -2.61566L7.46455 -2.84217C7.77643 -2.89228 8.08068 -2.71663 8.19322 -2.42147L8.70194 -1.08733C8.76962 -0.909824 8.90983 -0.769624 9.08733 -0.701939L10.4215 -0.193221C10.7166 -0.0806751 10.8923 0.223567 10.8422 0.535454L10.6157 1.94521C10.5855 2.13278 10.6368 2.3243 10.7567 2.47167L11.6578 3.5793C11.8571 3.82435 11.8571 4.17565 11.6578 4.4207L10.7567 5.52833C10.6368 5.6757 10.5855 5.86722 10.6157 6.05479L10.8422 7.46455C10.8923 7.77643 10.7166 8.08068 10.4215 8.19322L9.08733 8.70194C8.90982 8.76962 8.76962 8.90983 8.70194 9.08733L8.19322 10.4215C8.08068 10.7166 7.77643 10.8923 7.46455 10.8422L6.05479 10.6157C5.86722 10.5855 5.6757 10.6368 5.52833 10.7567L4.4207 11.6578C4.17565 11.8571 3.82435 11.8571 3.5793 11.6578L2.47167 10.7567C2.3243 10.6368 2.13278 10.5855 1.94521 10.6157L0.535454 10.8422C0.223567 10.8923 -0.0806751 10.7166 -0.193221 10.4215L-0.701939 9.08733C-0.769624 8.90983 -0.909825 8.76962 -1.08733 8.70194L-2.42147 8.19322C-2.71663 8.08068 -2.89228 7.77643 -2.84217 7.46455L-2.61566 6.05479C-2.58553 5.86722 -2.63684 5.6757 -2.75673 5.52833L-3.65777 4.4207C-3.85711 4.17565 -3.85711 3.82435 -3.65777 3.5793L-2.75673 2.47167C-2.63684 2.3243 -2.58553 2.13278 -2.61566 1.94521L-2.84217 0.535454C-2.89228 0.223567 -2.71663 -0.0806751 -2.42147 -0.193221L-1.08733 -0.701939C-0.909824 -0.769624 -0.769624 -0.909825 -0.701939 -1.08733L-0.193221 -2.42147C-0.0806751 -2.71663 0.223567 -2.89228 0.535454 -2.84217L1.94521 -2.61566C2.13278 -2.58553 2.3243 -2.63684 2.47167 -2.75673L3.5793 -3.65777Z" fill="#0066FF"/>
<path d="M3.2145 6.70866L0.870052 4.21977C0.600608 3.93088 0.600608 3.46699 0.870052 3.1781C0.932552 3.11046 1.00837 3.05647 1.09275 3.01955C1.17713 2.98264 1.26823 2.96358 1.36033 2.96358C1.45243 2.96358 1.54353 2.98264 1.62791 3.01955C1.71228 3.05647 1.78811 3.11046 1.85061 3.1781L3.2145 4.6281L6.15061 1.50866C6.42283 1.21977 6.85894 1.21977 7.13116 1.50866C7.40061 1.79477 7.40061 2.26144 7.13116 2.54755L3.2145 6.70866Z" fill="white"/>
</svg>
