<?xml version="1.0" encoding="UTF-8" standalone="no"?>
<svg
   width="16"
   height="16"
   viewBox="0 0 16 16"
   fill="none"
   version="1.1"
   id="svg19"
   sodipodi:docname="checked.svg"
   inkscape:version="1.1 (c68e22c387, 2021-05-23)"
   xmlns:inkscape="http://www.inkscape.org/namespaces/inkscape"
   xmlns:sodipodi="http://sodipodi.sourceforge.net/DTD/sodipodi-0.dtd"
   xmlns="http://www.w3.org/2000/svg"
   xmlns:svg="http://www.w3.org/2000/svg">
  <defs
     id="defs23" />
  <sodipodi:namedview
     id="namedview21"
     pagecolor="#ffffff"
     bordercolor="#666666"
     borderopacity="1.0"
     inkscape:pageshadow="2"
     inkscape:pageopacity="0.0"
     inkscape:pagecheckerboard="0"
     showgrid="false"
     inkscape:zoom="31.0625"
     inkscape:cx="8"
     inkscape:cy="8"
     inkscape:window-width="1366"
     inkscape:window-height="705"
     inkscape:window-x="-4"
     inkscape:window-y="-4"
     inkscape:window-maximized="1"
     inkscape:current-layer="svg19" />
  <path
     d="M7.5793 0.342233C7.82435 0.142891 8.17565 0.142891 8.4207 0.342233L9.52833 1.24327C9.6757 1.36316 9.86722 1.41447 10.0548 1.38434L11.4645 1.15783C11.7764 1.10772 12.0807 1.28337 12.1932 1.57853L12.7019 2.91267C12.7696 3.09018 12.9098 3.23038 13.0873 3.29806L14.4215 3.80678C14.7166 3.91932 14.8923 4.22357 14.8422 4.53545L14.6157 5.94521C14.5855 6.13278 14.6368 6.3243 14.7567 6.47167L15.6578 7.5793C15.8571 7.82435 15.8571 8.17565 15.6578 8.4207L14.7567 9.52833C14.6368 9.6757 14.5855 9.86722 14.6157 10.0548L14.8422 11.4645C14.8923 11.7764 14.7166 12.0807 14.4215 12.1932L13.0873 12.7019C12.9098 12.7696 12.7696 12.9098 12.7019 13.0873L12.1932 14.4215C12.0807 14.7166 11.7764 14.8923 11.4645 14.8422L10.0548 14.6157C9.86722 14.5855 9.6757 14.6368 9.52833 14.7567L8.4207 15.6578C8.17565 15.8571 7.82435 15.8571 7.5793 15.6578L6.47167 14.7567C6.3243 14.6368 6.13278 14.5855 5.94521 14.6157L4.53545 14.8422C4.22357 14.8923 3.91932 14.7166 3.80678 14.4215L3.29806 13.0873C3.23038 12.9098 3.09018 12.7696 2.91267 12.7019L1.57853 12.1932C1.28337 12.0807 1.10772 11.7764 1.15783 11.4645L1.38434 10.0548C1.41447 9.86722 1.36316 9.6757 1.24327 9.52833L0.342233 8.4207C0.142891 8.17565 0.142891 7.82435 0.342233 7.5793L1.24327 6.47167C1.36316 6.3243 1.41447 6.13278 1.38434 5.94521L1.15783 4.53545C1.10772 4.22357 1.28337 3.91932 1.57853 3.80678L2.91267 3.29806C3.09018 3.23038 3.23038 3.09018 3.29806 2.91267L3.80678 1.57853C3.91932 1.28337 4.22357 1.10772 4.53545 1.15783L5.94521 1.38434C6.13278 1.41447 6.3243 1.36316 6.47167 1.24327L7.5793 0.342233Z"
     fill="#0066FF"
     id="path17" />
  <g
     style="fill:none"
     id="g138"
     transform="translate(4.5305793,4.78944)">
    <path
       d="M 3.2145,5.70964 0.870052,3.22075 C 0.600608,2.93186 0.600608,2.46797 0.870052,2.17908 0.932552,2.11143 1.00837,2.05745 1.09275,2.02053 1.17713,1.98361 1.26823,1.96455 1.36033,1.96455 c 0.0921,0 0.1832,0.01906 0.26758,0.05598 0.08437,0.03692 0.1602,0.0909 0.2227,0.15855 l 1.36389,1.45 2.93611,-3.119445 c 0.27222,-0.288888 0.70833,-0.288888 0.98055,0 0.26945,0.286112 0.26945,0.752775 0,1.038885 z"
       fill="#ffffff"
       id="path129" />
  </g>
</svg>
