<svg width="18" height="18" viewBox="0 0 18 18" fill="none" xmlns="http://www.w3.org/2000/svg">
<path d="M9 10.6875V13.5C9 14.625 7.3125 15.75 6.1875 15.75H5.34375C5.11997 15.75 4.90536 15.8389 4.74713 15.9971C4.58889 16.1554 4.5 16.37 4.5 16.5938V17.4375H13.5V16.5938C13.5 16.37 13.4111 16.1554 13.2529 15.9971C13.0946 15.8389 12.88 15.75 12.6562 15.75H11.8125C10.6875 15.75 9 14.625 9 13.5" stroke="#F4B336" stroke-width="1.5" stroke-miterlimit="10" stroke-linecap="round" stroke-linejoin="round"/>
<path d="M13.5 6.21563C13.5 7.4091 13.0259 8.55369 12.182 9.39761C11.3381 10.2415 10.1935 10.7156 9 10.7156C7.80653 10.7156 6.66193 10.2415 5.81802 9.39761C4.97411 8.55369 4.5 7.4091 4.5 6.21563V0.5625H13.5V6.21563Z" stroke="#F4B336" stroke-width="1.5" stroke-miterlimit="10" stroke-linecap="round" stroke-linejoin="round"/>
<path d="M4.5 2.22165C2.8125 1.91228 1.6875 2.92478 1.6875 4.47165C1.6875 6.01853 2.95313 7.87478 4.5 7.87478H4.80938M13.5 2.22165C15.1875 1.91228 16.3125 2.92478 16.3125 4.47165C16.3125 6.01853 15.0469 7.87478 13.5 7.87478H13.1906" stroke="#F4B336" stroke-width="1.5" stroke-miterlimit="10" stroke-linecap="round" stroke-linejoin="round"/>
</svg>
