<svg width="20" height="20" viewBox="0 0 20 20" fill="none" xmlns="http://www.w3.org/2000/svg">
<path d="M10.0002 9.84655C11.1293 9.84655 12.3935 9.72155 13.2002 8.79988C13.8785 8.02488 14.0985 6.82655 13.8718 5.13988C13.5552 2.78572 12.1077 1.37988 10.0002 1.37988C7.89267 1.37988 6.44517 2.78572 6.1285 5.14155C5.90183 6.82655 6.12183 8.02488 6.80017 8.79988C7.60683 9.72238 8.871 9.84655 10.0002 9.84655ZM7.36683 5.30655C7.50183 4.30655 8.02267 2.62988 10.0002 2.62988C11.9777 2.62988 12.4985 4.30738 12.6335 5.30655C12.806 6.59822 12.681 7.49572 12.2585 7.97738C11.8793 8.41072 11.2035 8.59655 10.0002 8.59655C8.79683 8.59655 8.121 8.41072 7.74183 7.97738C7.31933 7.49572 7.19433 6.59738 7.36683 5.30655ZM16.9002 16.0299C16.1693 13.0915 13.3318 11.0382 10.0002 11.0382C6.6685 11.0382 3.831 13.0915 3.10017 16.0299C2.95683 16.6066 3.07683 17.1966 3.42933 17.6466C3.76933 18.0799 4.296 18.3299 4.8735 18.3299H15.1268C15.7043 18.3299 16.231 18.0799 16.571 17.6466C16.9243 17.1966 17.0435 16.6074 16.8993 16.0299H16.9002ZM15.5868 16.8766C15.4818 17.0099 15.3235 17.0815 15.1268 17.0815H4.8735C4.67767 17.0815 4.5185 17.0107 4.4135 16.8766C4.29933 16.7316 4.2635 16.5332 4.3135 16.3315C4.90517 13.9524 7.24433 12.2899 10.0002 12.2899C12.756 12.2899 15.0952 13.9515 15.6868 16.3315C15.7368 16.5332 15.701 16.7316 15.5868 16.8766Z" fill="#CED3DB"/>
</svg>
