<svg width="20" height="20" viewBox="0 0 20 20" fill="none" xmlns="http://www.w3.org/2000/svg">
<g clip-path="url(#clip0)">
<path d="M9.07668 1.21993C9.41827 0.398638 10.5817 0.398636 10.9233 1.21993L12.675 5.4314C12.819 5.77764 13.1446 6.01421 13.5184 6.04418L18.065 6.40868C18.9517 6.47976 19.3112 7.58627 18.6357 8.16494L15.1716 11.1323C14.8868 11.3762 14.7624 11.759 14.8495 12.1238L15.9078 16.5605C16.1142 17.4257 15.1729 18.1096 14.4138 17.6459L10.5213 15.2684C10.2012 15.0729 9.79876 15.0729 9.47875 15.2684L5.58619 17.6459C4.82709 18.1096 3.88583 17.4257 4.09222 16.5605L5.15055 12.1238C5.23756 11.759 5.11318 11.3762 4.8284 11.1323L1.36434 8.16494C0.688799 7.58627 1.04832 6.47976 1.93498 6.40868L6.48162 6.04418C6.85541 6.01421 7.18102 5.77764 7.32503 5.43141L9.07668 1.21993Z" fill="#CED3DB"/>
</g>
<defs>
<clipPath id="clip0">
<rect width="20" height="20" fill="white"/>
</clipPath>
</defs>
</svg>
