<svg width="22" height="23" viewBox="0 0 22 23" fill="none" xmlns="http://www.w3.org/2000/svg">
<g clip-path="url(#clip0)">
<path d="M21.9999 11.4804C21.9999 10.7175 21.938 9.95047 21.8061 9.19995H11.2205V13.5216H17.2823C17.0308 14.9154 16.2225 16.1484 15.039 16.9319V19.736H18.6555C20.7792 17.7814 21.9999 14.8948 21.9999 11.4804Z" fill="#4285F4"/>
<path d="M11.2208 22.4452C14.2476 22.4452 16.8001 21.4514 18.6599 19.7359L15.0434 16.9318C14.0373 17.6163 12.7383 18.004 11.2249 18.004C8.29705 18.004 5.81458 16.0287 4.92385 13.373H1.19189V16.2638C3.09705 20.0535 6.97746 22.4452 11.2208 22.4452Z" fill="#34A853"/>
<path d="M4.91945 13.3732C4.44935 11.9794 4.44935 10.4701 4.91945 9.07627V6.18555H1.19162C-0.400135 9.35668 -0.400135 13.0928 1.19162 16.2639L4.91945 13.3732Z" fill="#FBBC04"/>
<path d="M11.2207 4.44126C12.8207 4.41652 14.3671 5.01858 15.5259 6.12374L18.73 2.91961C16.7011 1.01446 14.0084 -0.0329658 11.2207 2.38615e-05C6.97745 2.38615e-05 3.09705 2.39178 1.19189 6.18559L4.91972 9.07631C5.80632 6.41652 8.29291 4.44126 11.2207 4.44126Z" fill="#EA4335"/>
</g>
<defs>
<clipPath id="clip0">
<rect width="22" height="22.4454" fill="white"/>
</clipPath>
</defs>
</svg>
