<svg width="45" height="45" viewBox="0 0 45 45" fill="none" xmlns="http://www.w3.org/2000/svg">
<circle cx="22.5" cy="22.5" r="22.5" fill="#4A76A8"/>
<path d="M22.3195 27.8074H23.3302C23.4163 27.8055 23.5011 27.7853 23.5789 27.7483C23.6568 27.7112 23.7259 27.6582 23.7817 27.5925C23.8686 27.4562 23.9147 27.2978 23.9145 27.1362C23.9145 27.1362 23.888 25.7671 24.5255 25.5523C25.1364 25.3645 25.9351 26.8945 26.8128 27.4852C27.1506 27.7104 27.5509 27.8232 27.9565 27.8074H30.2173C30.3767 27.8074 31.3611 27.6733 30.8548 26.7603C30.8017 26.6806 30.536 26.0623 29.1527 24.7737C27.7164 23.4315 27.9292 23.6461 29.6308 21.3376C30.668 19.9417 31.067 19.0827 30.9608 18.7079C30.8811 18.4125 30.0576 18.4662 30.0576 18.4662H27.506C27.3969 18.4518 27.2859 18.4703 27.1873 18.5193C27.0941 18.5886 27.0208 18.6812 26.9748 18.7878C26.7148 19.4854 26.3949 20.159 26.0185 20.8013C24.8748 22.7611 24.4227 22.8684 24.2365 22.7342C23.8115 22.4389 23.9177 21.6067 23.9177 20.9893C23.9177 19.0832 24.2099 18.3047 23.3599 18.0901C22.9694 17.9899 22.5651 17.954 22.163 17.9838C21.2599 17.9838 20.4874 17.9838 20.0351 18.1987C19.7429 18.3328 19.5304 18.655 19.6632 18.6819C19.9491 18.7109 20.214 18.8448 20.407 19.0577C20.6726 19.4068 20.6726 20.239 20.6726 20.239C20.6726 20.239 20.832 22.467 20.3273 22.7358C19.982 22.9236 19.5038 22.548 18.4921 20.7761C18.1445 20.1638 17.8426 19.5267 17.5889 18.8699C17.5395 18.7577 17.4672 18.6571 17.3764 18.5746C17.2629 18.4819 17.124 18.4258 16.978 18.4136H14.5531C14.5531 18.4136 14.1812 18.387 14.0484 18.6014C14.0191 18.6692 14.0039 18.7423 14.0039 18.8161C14.0039 18.89 14.0191 18.9631 14.0484 19.0309C14.0484 19.0309 15.9628 23.5388 18.1175 25.7942C20.0858 27.9686 22.32 27.8077 22.32 27.8077L22.3195 27.8074Z" fill="white"/>
</svg>
