<svg width="20" height="20" viewBox="0 0 20 20" fill="none" xmlns="http://www.w3.org/2000/svg">
<path d="M7.65 0V-0.15H7.5H6.25H6.1V0V1.1H2.5V1.09992L2.495 1.10008L2.40125 1.10321L2.40125 1.10308L2.395 1.10355C2.04279 1.13004 1.71361 1.28868 1.47345 1.54766C1.2333 1.80664 1.0999 2.14681 1.1 2.5C1.1 2.50002 1.1 2.50003 1.1 2.50005L1.1 15.625H1.09996L1.10004 15.6285L1.10316 15.7641L1.10313 15.7641L1.10327 15.7671C1.13989 16.6103 1.50059 17.4067 2.11015 17.9904C2.7197 18.5741 3.53105 18.9 4.37499 18.9H12.2413V18.9002L12.2481 18.8998L12.3581 18.8948L12.3581 18.895L12.3645 18.8944C12.6919 18.8655 12.9986 18.7222 13.2311 18.4898L18.4898 13.2311L18.4899 13.2312L18.4944 13.2263L18.5688 13.145L18.5689 13.1451L18.5731 13.1401C18.7842 12.8881 18.8999 12.57 18.9 12.2413V12.2413V2.5H18.9001L18.8999 2.495L18.8968 2.40125L18.8969 2.40125L18.8965 2.395C18.87 2.04279 18.7113 1.71361 18.4523 1.47345C18.1934 1.2333 17.8532 1.0999 17.5 1.1C17.5 1.1 17.5 1.1 17.5 1.1H13.9V0V-0.15H13.75H12.5H12.35V0V1.1H7.65V0ZM14.2359 11.1032L14.2359 11.1031L14.2329 11.1033C13.3897 11.1399 12.5933 11.5006 12.0096 12.1101C11.4259 12.7197 11.1 13.531 11.1 14.375V17.35H4.37718L4.27156 17.347C3.83316 17.3207 3.42128 17.1281 3.11994 16.8085C2.81809 16.4884 2.64998 16.065 2.65 15.625V7.65H17.35V11.1H14.375V11.1L14.3715 11.1L14.2359 11.1032ZM13.75 3.9H13.9V3.75V2.65H17.35V6.1H2.65V2.65H6.1V3.75V3.9H6.25H7.5H7.65V3.75V2.65H12.35V3.75V3.9H12.5H13.75ZM14.375 12.65H16.8785L12.65 16.8785V14.3771L12.653 14.2716C12.6793 13.8332 12.8719 13.4213 13.1915 13.1199C13.5116 12.8181 13.935 12.65 14.375 12.65Z" fill="#5E6674" stroke="#5E6674" stroke-width="0.3"/>
</svg>
