<svg width="20" height="19" viewBox="0 0 20 19" fill="none" xmlns="http://www.w3.org/2000/svg">
<path d="M9.35367 0.553952C9.59279 -0.0209532 10.4072 -0.0209547 10.6463 0.55395L12.7453 5.60059C12.8461 5.84296 13.0741 6.00856 13.3357 6.02953L18.784 6.46632C19.4047 6.51608 19.6563 7.29063 19.1835 7.6957L15.0324 11.2515C14.8331 11.4222 14.746 11.6902 14.8069 11.9455L16.0751 17.2621C16.2196 17.8678 15.5607 18.3465 15.0294 18.0219L10.3649 15.1729C10.1409 15.036 9.85913 15.036 9.63512 15.1729L4.97064 18.0219C4.43927 18.3465 3.78039 17.8678 3.92486 17.2621L5.19307 11.9455C5.25397 11.6902 5.16691 11.4223 4.96756 11.2515L0.816548 7.6957C0.343672 7.29063 0.59534 6.51608 1.216 6.46632L6.66427 6.02953C6.92593 6.00856 7.15385 5.84296 7.25466 5.60059L9.35367 0.553952Z" fill="#CED3DB"/>
</svg>
