<svg width="45" height="45" viewBox="0 0 45 45" fill="none" xmlns="http://www.w3.org/2000/svg">
<circle cx="22.5" cy="22.5" r="22.5" fill="#03A9F4"/>
<g clip-path="url(#clip0_1120:1544)">
<path d="M30.9023 17.2203C30.7893 17.0967 30.6073 17.0646 30.4588 17.142C30.3062 17.2113 30.1483 17.2684 29.9865 17.3127C30.2388 16.9899 30.4292 16.6233 30.5483 16.2313C30.6007 16.0341 30.4833 15.8317 30.286 15.7792C30.1807 15.7513 30.0684 15.7712 29.9791 15.8337C29.4172 16.1378 28.8199 16.3714 28.2008 16.5292C26.9262 15.3262 24.9847 15.1762 23.5405 16.1693C22.428 16.9215 21.8155 18.2215 21.9439 19.5582C19.5324 19.3527 17.3136 18.1577 15.815 16.2572C15.738 16.1641 15.6215 16.1128 15.5008 16.119C15.3784 16.1263 15.2677 16.1939 15.2052 16.2993C14.6965 17.1308 14.5492 18.1337 14.7972 19.0763C14.9243 19.5606 15.1423 20.0163 15.4395 20.4193C15.3056 20.3538 15.1796 20.2732 15.064 20.1791C14.9055 20.0505 14.6728 20.0748 14.5442 20.2333C14.4908 20.2991 14.4616 20.3812 14.4616 20.4659C14.4836 21.8333 15.2344 23.0848 16.4307 23.7477C16.2693 23.7279 16.11 23.6938 15.9547 23.6457C15.7592 23.5869 15.5531 23.6977 15.4943 23.8931C15.4687 23.9784 15.4747 24.0701 15.5112 24.1513C16.0304 25.3143 17.0683 26.1637 18.3111 26.4426C17.1271 27.1106 15.7637 27.3913 14.4121 27.2453C14.2368 27.2229 14.0708 27.3295 14.0181 27.4981C13.9638 27.6654 14.0349 27.8478 14.1881 27.9342C15.8431 28.9175 17.7257 29.4525 19.6504 29.4864C21.4969 29.4797 23.3003 28.9281 24.8347 27.9009C27.7639 25.957 29.5896 22.4668 29.3354 19.3439C29.9617 18.8803 30.505 18.314 30.9423 17.669C31.0321 17.5277 31.0158 17.3435 30.9023 17.2203Z" fill="white"/>
</g>
<defs>
<clipPath id="clip0_1120:1544">
<rect width="17" height="17" fill="white" transform="translate(14 14)"/>
</clipPath>
</defs>
</svg>
