<svg width="20" height="20" viewBox="0 0 20 20" fill="none" xmlns="http://www.w3.org/2000/svg">
<g clip-path="url(#clip0)">
<path d="M7.6 0V-0.1H7.5H6.25H6.15V0V1.15H2.5V1.14994L2.49667 1.15006L2.40292 1.15318L2.40292 1.15309L2.39875 1.15341C2.05912 1.17895 1.7417 1.33192 1.51011 1.58166C1.27853 1.83139 1.1499 2.15942 1.15 2.5C1.15 2.50001 1.15 2.50002 1.15 2.50003L1.15 15.625H1.14997L1.15003 15.6273L1.15315 15.7629H1.15313L1.15322 15.765C1.18929 16.5952 1.54448 17.3795 2.14473 17.9543C2.74498 18.5291 3.54394 18.85 4.37499 18.85H12.2413V18.8501L12.2458 18.8499L12.3558 18.8449L12.3558 18.845L12.3601 18.8446C12.6758 18.8167 12.9716 18.6786 13.1957 18.4545L18.4545 13.1957L18.4545 13.1958L18.4575 13.1925L18.5319 13.1113L18.532 13.1113L18.5348 13.108C18.7383 12.865 18.8499 12.5582 18.85 12.2413V2.5H18.8501L18.8499 2.49667L18.8468 2.40292L18.8469 2.40292L18.8466 2.39875C18.8211 2.05912 18.6681 1.7417 18.4183 1.51011C18.1686 1.27853 17.8406 1.1499 17.5 1.15C17.5 1.15 17.5 1.15 17.5 1.15H13.85V0V-0.1H13.75H12.5H12.4V0V1.15H7.6V0ZM14.2371 11.1532V11.1531L14.235 11.1532C13.4048 11.1893 12.6205 11.5445 12.0457 12.1447C11.4709 12.745 11.15 13.5439 11.15 14.375V17.4H4.37643L4.26938 17.397C3.81797 17.3701 3.39382 17.1719 3.08356 16.8428C2.77296 16.5134 2.59997 16.0778 2.6 15.625V7.6H17.4V11.15H14.375V11.15L14.3727 11.15L14.2371 11.1532ZM13.75 3.85H13.85V3.75V2.6H17.4V6.15H2.6V2.6H6.15V3.75V3.85H6.25H7.5H7.6V3.75V2.6H12.4V3.75V3.85H12.5H13.75ZM14.375 12.6H16.9992L12.6 16.9992V14.3764L12.603 14.2694C12.6299 13.818 12.8281 13.3938 13.1572 13.0836C13.4866 12.773 13.9222 12.6 14.375 12.6Z" fill="currentColor" stroke="currentColor" stroke-width="0.2"/>
</g>
<defs>
<clipPath id="clip0">
<rect width="20" height="20" fill="white"/>
</clipPath>
</defs>
</svg>
