<svg width="22" height="20" viewBox="0 0 22 20" fill="none" xmlns="http://www.w3.org/2000/svg">
<path d="M15.375 2.8125H14.75C13.5 2.8125 11 1.5625 9.75 1.5625H4.75C4.41848 1.5625 4.10054 1.6942 3.86612 1.92862C3.6317 2.16304 3.5 2.48098 3.5 2.8125C3.5 3.14402 3.6317 3.46196 3.86612 3.69638C4.10054 3.9308 4.41848 4.0625 4.75 4.0625H4.125C3.79348 4.0625 3.47554 4.1942 3.24112 4.42862C3.0067 4.66304 2.875 4.98098 2.875 5.3125C2.875 5.64402 3.0067 5.96196 3.24112 6.19638C3.47554 6.4308 3.79348 6.5625 4.125 6.5625H3.5C3.16848 6.5625 2.85054 6.6942 2.61612 6.92862C2.3817 7.16304 2.25 7.48098 2.25 7.8125C2.25 8.14402 2.3817 8.46196 2.61612 8.69638C2.85054 8.9308 3.16848 9.0625 3.5 9.0625H2.875C2.54348 9.0625 2.22554 9.1942 1.99112 9.42862C1.7567 9.66304 1.625 9.98098 1.625 10.3125C1.625 10.644 1.7567 10.962 1.99112 11.1964C2.22554 11.4308 2.54348 11.5625 2.875 11.5625H9.125C8.70705 13.4082 8.4974 15.295 8.5 17.1875C8.5 17.519 8.6317 17.837 8.86612 18.0714C9.10054 18.3058 9.41848 18.4375 9.75 18.4375C10.0815 18.4375 10.3995 18.3058 10.6339 18.0714C10.8683 17.837 11 17.519 11 17.1875C11 17.1875 11.5625 10.9688 15.375 10.375" stroke="currentColor" stroke-width="2" stroke-miterlimit="10" stroke-linecap="round" stroke-linejoin="round"/>
<path d="M20.375 12.8125L15.375 12.1875V2.1875H20.375V12.8125Z" stroke="currentColor" stroke-width="2" stroke-miterlimit="10" stroke-linecap="round" stroke-linejoin="round"/>
</svg>
