<svg width="20" height="20" viewBox="0 0 20 20" fill="none" xmlns="http://www.w3.org/2000/svg">
<path d="M10 5.733C13.445 5.733 16.518 7.579 18.018 10.5C16.518 13.42 13.445 15.267 10 15.267C6.555 15.267 3.482 13.421 1.982 10.5C3.482 7.58 6.555 5.733 10 5.733ZM10 4C5.455 4 1.573 6.695 0 10.5C1.573 14.305 5.455 17 10 17C14.546 17 18.427 14.305 20 10.5C18.427 6.695 14.546 4 10 4ZM10 8.333C11.255 8.333 12.273 9.304 12.273 10.5C12.273 11.696 11.255 12.667 10 12.667C8.745 12.667 7.727 11.696 7.727 10.5C7.727 9.304 8.745 8.333 10 8.333ZM10 6.6C7.745 6.6 5.91 8.35 5.91 10.5C5.91 12.65 7.745 14.4 10 14.4C12.255 14.4 14.09 12.65 14.09 10.5C14.09 8.35 12.256 6.6 10 6.6Z" fill="currentColor"/>
</svg>
