<svg width="22" height="20" viewBox="0 0 22 20" fill="none" xmlns="http://www.w3.org/2000/svg">
<path d="M6.625 17.1875L7.25 17.1875C8.5 17.1875 11 18.4375 12.25 18.4375L17.25 18.4375C17.5815 18.4375 17.8995 18.3058 18.1339 18.0714C18.3683 17.837 18.5 17.519 18.5 17.1875C18.5 16.856 18.3683 16.538 18.1339 16.3036C17.8995 16.0692 17.5815 15.9375 17.25 15.9375L17.875 15.9375C18.2065 15.9375 18.5245 15.8058 18.7589 15.5714C18.9933 15.337 19.125 15.019 19.125 14.6875C19.125 14.356 18.9933 14.038 18.7589 13.8036C18.5245 13.5692 18.2065 13.4375 17.875 13.4375L18.5 13.4375C18.8315 13.4375 19.1495 13.3058 19.3839 13.0714C19.6183 12.837 19.75 12.519 19.75 12.1875C19.75 11.856 19.6183 11.538 19.3839 11.3036C19.1495 11.0692 18.8315 10.9375 18.5 10.9375L19.125 10.9375C19.4565 10.9375 19.7745 10.8058 20.0089 10.5714C20.2433 10.337 20.375 10.019 20.375 9.6875C20.375 9.35598 20.2433 9.03804 20.0089 8.80362C19.7745 8.5692 19.4565 8.4375 19.125 8.4375L12.875 8.4375C13.293 6.59176 13.5026 4.70497 13.5 2.8125C13.5 2.48098 13.3683 2.16304 13.1339 1.92862C12.8995 1.6942 12.5815 1.5625 12.25 1.5625C11.9185 1.5625 11.6005 1.6942 11.3661 1.92862C11.1317 2.16304 11 2.48098 11 2.8125C11 2.8125 10.4375 9.03125 6.625 9.625" stroke="currentColor" stroke-width="2" stroke-miterlimit="10" stroke-linecap="round" stroke-linejoin="round"/>
<path d="M1.625 7.1875L6.625 7.8125L6.625 17.8125L1.625 17.8125L1.625 7.1875Z" stroke="currentColor" stroke-width="2" stroke-miterlimit="10" stroke-linecap="round" stroke-linejoin="round"/>
</svg>
