<svg width="16" height="20" viewBox="0 0 16 20" fill="none" xmlns="http://www.w3.org/2000/svg">
<path d="M8 0C12.1419 0 15.5 3.35813 15.5 7.5C15.5 11.4606 13.1163 15.4694 8.40875 19.5356L8 19.8875L7.3275 19.305C2.79437 15.3181 0.5 11.3863 0.5 7.5C0.5 3.38938 3.87312 0 8 0ZM8 1.25C4.565 1.25 1.75 4.07813 1.75 7.5C1.75 10.9 3.78063 14.4488 7.89438 18.1375L8 18.2306L8.36 17.9069C12.2213 14.3756 14.1681 10.9744 14.2475 7.70813L14.25 7.5C14.25 4.04813 11.4519 1.25 8 1.25ZM8 4.375C8.8288 4.375 9.62366 4.70424 10.2097 5.29029C10.7958 5.87634 11.125 6.6712 11.125 7.5C11.125 8.3288 10.7958 9.12366 10.2097 9.70971C9.62366 10.2958 8.8288 10.625 8 10.625C7.1712 10.625 6.37634 10.2958 5.79029 9.70971C5.20424 9.12366 4.875 8.3288 4.875 7.5C4.875 6.6712 5.20424 5.87634 5.79029 5.29029C6.37634 4.70424 7.1712 4.375 8 4.375ZM8 5.625C7.50272 5.625 7.02581 5.82254 6.67417 6.17418C6.32254 6.52581 6.125 7.00272 6.125 7.5C6.125 7.99728 6.32254 8.4742 6.67417 8.82583C7.02581 9.17746 7.50272 9.375 8 9.375C8.49728 9.375 8.97419 9.17746 9.32583 8.82583C9.67746 8.4742 9.875 7.99728 9.875 7.5C9.875 7.00272 9.67746 6.52581 9.32583 6.17418C8.97419 5.82254 8.49728 5.625
 8 5.625Z" fill="currentColor"/>
</svg>
