<svg width="45" height="45" viewBox="0 0 45 45" fill="none" xmlns="http://www.w3.org/2000/svg">
<circle cx="22.5" cy="22.5" r="22.5" fill="#FF9800"/>
<g clip-path="url(#clip0_1120:1545)">
<path d="M22.5002 23.1997C25.0407 23.1997 27.1001 21.1403 27.1001 18.5998C27.1001 16.0594 25.0407 14 22.5002 14C19.9598 14 17.9004 16.0594 17.9004 18.5999C17.9035 21.139 19.9611 23.1966 22.5002 23.1997ZM22.5002 16.123C23.8681 16.123 24.9771 17.2319 24.9771 18.5999C24.9771 19.9678 23.8682 21.0767 22.5002 21.0767C21.1323 21.0767 20.0234 19.9678 20.0234 18.5999C20.0234 17.2319 21.1323 16.123 22.5002 16.123Z" fill="white"/>
<path d="M27.0057 25.3801C27.5057 25.0508 27.8069 24.4926 27.8076 23.894C27.8145 23.3972 27.5342 22.941 27.0879 22.7228C26.6293 22.4937 26.0803 22.5453 25.6725 22.8558C23.7823 24.2339 21.2185 24.2339 19.3282 22.8558C18.9198 22.5469 18.3718 22.4954 17.9129 22.7228C17.4668 22.941 17.1863 23.3967 17.1925 23.8933C17.1935 24.4917 17.4946 25.0498 17.9943 25.3794C18.6353 25.8057 19.3334 26.1392 20.0678 26.3701C20.1923 26.4088 20.3209 26.4447 20.4535 26.4777L18.3149 28.5689C17.7539 29.1132 17.7403 30.0092 18.2846 30.5702C18.829 31.1313 19.725 31.1448 20.286 30.6005C20.2977 30.5892 20.3092 30.5776 20.3204 30.5659L22.5001 28.3098L24.684 30.5701C25.2278 31.1316 26.1239 31.1459 26.6853 30.602C27.2467 30.0581 27.261 29.1621 26.7172 28.6007C26.7058 28.5889 26.6942 28.5774 26.6824 28.566L24.5474 26.477C24.6799 26.443 24.809 26.4069 24.9345 26.3687C25.6681 26.1387 26.3655 25.8058 27.0057 25.3801Z" fill="white"/>
</g>
<defs>
<clipPath id="clip0_1120:1545">
<rect width="17" height="17" fill="white" transform="translate(14 14)"/>
</clipPath>
</defs>
</svg>
