<svg width="21" height="22" viewBox="0 0 21 22" fill="none" xmlns="http://www.w3.org/2000/svg">
<path d="M11 15.0625C13.2437 15.0625 15.0625 13.2437 15.0625 11C15.0625 8.75634 13.2437 6.9375 11 6.9375C8.75634 6.9375 6.9375 8.75634 6.9375 11C6.9375 13.2437 8.75634 15.0625 11 15.0625Z" stroke="#CED3DB" stroke-width="2" stroke-miterlimit="10" stroke-linecap="round"/>
<path d="M18.1017 12.1119C18.2163 11.375 18.2163 10.6249 18.1017 9.88812L19.6996 8.34375C19.7907 8.25569 19.8497 8.1397 19.8673 8.01422C19.8849 7.88875 19.8601 7.76099 19.7967 7.65125L18.2517 4.97531C18.1884 4.86554 18.0902 4.78011 17.9727 4.7326C17.8552 4.68509 17.7252 4.67824 17.6033 4.71312L15.4224 5.33812C14.8572 4.89581 14.2288 4.54081 13.5583 4.285L13.0002 2.05531C12.9695 1.93259 12.8987 1.82362 12.7991 1.74567C12.6995 1.66773 12.5767 1.62526 12.4502 1.625H9.36018C9.23347 1.62498 9.11039 1.66732 9.0105 1.74529C8.91062 1.82326 8.83967 1.93238 8.80893 2.05531L8.23143 4.36594C7.61953 4.62196 7.04605 4.96154 6.52737 5.375L4.20737 4.71125C4.08553 4.67636 3.95552 4.68322 3.83802 4.73073C3.72052 4.77824 3.62229 4.86367 3.55893 4.97344L2.01393 7.65062C1.95039 7.76039 1.92541 7.88827 1.94297 8.01388C1.96053 8.13949 2.01961 8.25561 2.11081 8.34375L3.87706 10.0513C3.79127 10.6812 3.79127 11.3198 3.87706 11.9497L2.11081 13.6562C2.0197 13.7443 1.96066 13.8603 1.94305 13.9858C1.92544 14.1113 1.95028 14.239 2.01362 14.3487L3.55862 17.0247C3.62197 17.1345 3.72021 17.2199 3.83771 17.2674C3.95521 17.3149 4.08521 17.3218 4.20706 17.2869L6.52737 16.625C7.04608 17.0388 7.61967 17.3787 8.23175 17.635L8.80925 19.9456C8.84015 20.0683 8.91113 20.1772 9.01093 20.255C9.11074 20.3328 9.23365 20.375 9.36018 20.375H12.4502C12.5767 20.3747 12.6995 20.3323 12.7991 20.2543C12.8987 20.1764 12.9695 20.0674 13.0002 19.9447L13.5571 17.7172C14.2276 17.4613 14.856 17.1062 15.4211 16.6638L17.6021 17.2888C17.7239 17.3236 17.8539 17.3168 17.9714 17.2693C18.0889 17.2218 18.1871 17.1363 18.2505 17.0266L19.7955 14.3506C19.8588 14.2409 19.8837 14.1131 19.8661 13.9877C19.8485 13.8622 19.7894 13.7462 19.6983 13.6581L18.1017 12.1119Z" stroke="#CED3DB" stroke-width="2" stroke-miterlimit="10" stroke-linecap="round"/>
</svg>
